<?xml version="1.0" encoding="UTF-8" standalone="no"?>
<svg
   xmlns:dc="http://purl.org/dc/elements/1.1/"
   xmlns:cc="http://creativecommons.org/ns#"
   xmlns:rdf="http://www.w3.org/1999/02/22-rdf-syntax-ns#"
   xmlns:svg="http://www.w3.org/2000/svg"
   xmlns="http://www.w3.org/2000/svg"
   version="1.1"
   id="svg9659"
   viewBox="0 0 150 73.999991"
   height="74"
   width="150">
  <defs
     id="defs9661">
    <clipPath
       clipPathUnits="userSpaceOnUse"
       id="clipPath9681">
      <path
         d="M 0,595 842,595 842,0 0,0 0,595 Z"
         id="path9683" />
    </clipPath>
  </defs>
  <metadata
     id="metadata9664">
    <rdf:RDF>
      <cc:Work
         rdf:about="">
        <dc:format>image/svg+xml</dc:format>
        <dc:type
           rdf:resource="http://purl.org/dc/dcmitype/StillImage" />
        <dc:title></dc:title>
      </cc:Work>
    </rdf:RDF>
  </metadata>
  <path
     id="path9687"
     d="m 87.262664,23.164619 c -1.58839,0 -2.336547,0.54211 -2.336547,1.890289 l 0,21.247438 c 0,1.350666 0.161231,1.846264 2.381772,1.846264 l 0.224129,0 c 2.202357,0 2.336545,-0.497056 2.336545,-1.846264 l 0,-21.247438 c 0,-1.350154 -0.134045,-1.890289 -2.380971,-1.890289 z m 37.295086,0 c -1.93238,0 -2.33655,0.08956 -2.33655,1.886687 0,1.797899 0.40417,1.887887 2.33655,1.887887 l 2.20246,0 c 1.50466,0 2.38097,-0.08999 2.38097,-1.887887 0,-1.797131 -0.90828,-1.886687 -2.38097,-1.886687 z m 12.67169,1.483254 c -2.20184,0 -2.33694,0.546516 -2.33694,1.886687 l 0,16.716429 c 0,3.684426 2.11157,5.256628 8.13308,5.256628 2.65164,0 4.67359,-0.22453 5.70689,-0.359007 1.03407,-0.135758 1.25832,-0.314966 1.25832,-1.393603 0,-1.259734 -0.40498,-1.124215 -1.43802,-1.033795 -0.98873,0.09016 -2.78577,0.270155 -4.26886,0.270155 -2.24667,0 -4.44857,-0.01458 -4.44857,-2.79521 l 0,-9.28815 c 0,-0.811988 0.359,-1.082623 1.12385,-1.082623 l 6.87476,0 c 1.0429,0 1.25873,-0.224114 1.25873,-1.168273 0,-0.943392 -0.13552,-1.213099 -1.25873,-1.213099 l -6.87476,0 c -0.65212,0 -1.12385,-0.224626 -1.12385,-1.033796 l 0,-2.920082 c 0,-1.168557 -0.69679,-1.842261 -2.38097,-1.842261 z M 12.311892,30.084605 C 1.7975474,30.084605 0,33.409672 0,39.341537 c 0,6.875 3.1902375,9.211306 13.74992,9.211306 4.179047,0 7.41467,-0.494573 7.638799,-0.539912 1.033812,-0.179303 1.258326,-0.35859 1.258326,-1.437227 0,-1.258197 -0.44941,-1.213099 -1.482455,-1.078622 -0.314803,0.04508 -4.089299,0.494285 -6.964811,0.494285 -4.6734118,0 -9.0320024,-0.134381 -9.0320024,-4.492988 0,-0.853996 0.4533135,-0.988569 0.9885695,-0.988569 l 15.2779999,0 c 2.785861,0 3.010133,-0.853964 3.010133,-2.29172 0,-5.752049 -3.504768,-8.133485 -12.132587,-8.133485 z m 54.55062,4.1e-4 c -11.413422,0 -12.491996,4.133693 -12.491996,9.300957 0,5.122951 1.078574,9.256932 12.491996,9.256932 11.413422,0 12.491596,-4.133981 12.491596,-9.256932 0,-5.167264 -1.078174,-9.300957 -12.491596,-9.300957 z m -37.475586,0.359006 c -2.246926,0 -2.606348,0.494894 -1.887086,1.982342 l 6.515353,13.78474 c 0.808913,1.711578 1.348739,1.937516 3.190237,1.937516 l 4.628666,0 c 1.842213,0 2.381068,-0.180856 3.190238,-1.937516 l 6.605805,-14.460729 c 0.449027,-0.945953 0.08964,-1.306353 -1.213899,-1.306353 -1.797132,0 -2.246814,0.180584 -2.741179,1.306353 l -5.706487,13.380097 c -0.314037,0.765881 -0.850205,0.810867 -1.482453,0.810867 l -0.314582,0 c -0.763832,0 -1.123879,-0.04499 -1.483254,-0.810867 L 32.84692,32.335902 c -0.763832,-1.711578 -0.943857,-1.89189 -3.459994,-1.891881 z m 67.22192,0 c -2.24667,0 -2.606348,0.494894 -1.887086,1.982342 l 6.51495,13.78474 c 0.80917,1.711578 1.34911,1.937516 3.19024,1.937516 l 4.62907,0 c 1.84221,0 2.38669,-0.178392 3.19023,-1.937516 l 6.60541,-14.460729 c 0.44928,-0.945953 0.09,-1.306353 -1.2135,-1.306353 -1.79713,0 -2.25887,0.175478 -2.74118,1.306353 l -5.70649,13.380097 c -0.31403,0.765881 -0.7954,0.810867 -1.48285,0.810867 l -0.31458,0 c -0.76409,0 -1.13148,-0.04129 -1.48286,-0.810867 l -5.84176,-12.794569 c -0.763834,-1.711578 -0.943201,-1.89189 -3.459594,-1.891881 z m 28.937864,0.008 c -2.20184,0 -2.33694,0.549227 -2.33694,1.890689 l 0,13.95924 c 0,1.351178 0.1487,1.846664 2.38217,1.846664 l 0.22413,0 c 2.2021,0 2.33655,-0.495486 2.33655,-1.846664 l 0,-13.95924 c 0,-1.340763 -0.69117,-1.890689 -2.38138,-1.890689 z M 12.267466,32.331099 c 5.212602,0 7.009237,0.988441 7.009237,4.898021 0,0.718494 -0.494205,0.898518 -1.078221,0.898518 l -11.9076585,0 c -0.5721073,0 -1.0333952,-0.180024 -1.0333952,-0.898518 0,-3.90958 1.7075274,-4.898021 7.0100377,-4.898021 z m 54.595046,0 c 6.83043,0 7.279394,2.696001 7.279394,7.054863 0,4.314037 -0.448964,7.055264 -7.279394,7.055264 -6.829918,0 -7.279391,-2.741227 -7.279393,-7.055264 0,-4.358862 0.449475,-7.054863 7.279393,-7.054863 z"
     style="fill:#88bac9;fill-opacity:1;fill-rule:evenodd;stroke:none" />
  <g
     transform="translate(-9.022875,-520.5291)"
     id="layer1" />
</svg>
