<?xml version="1.0" encoding="UTF-8" standalone="no"?><!DOCTYPE svg PUBLIC "-//W3C//DTD SVG 1.1//EN" "http://www.w3.org/Graphics/SVG/1.1/DTD/svg11.dtd"><svg width="1630px" height="643px" version="1.1" xmlns="http://www.w3.org/2000/svg" xmlns:xlink="http://www.w3.org/1999/xlink" xml:space="preserve" xmlns:serif="http://www.serif.com/" style="fill-rule:evenodd;clip-rule:evenodd;stroke-linejoin:round;stroke-miterlimit:1.41421;"><g><path d="M921.024,600.429C919.211,605.4 916.648,609.696 913.339,613.32C910.024,616.947 906.04,619.789 901.381,621.859C896.723,623.933 891.544,624.965 885.853,624.965C880.16,624.965 875.005,623.933 870.403,621.859C865.795,619.789 861.835,616.947 858.523,613.32C855.205,609.696 852.645,605.4 850.837,600.429C849.021,595.461 848.117,590.027 848.117,584.125C848.117,578.637 849.021,573.515 850.837,568.752C852.645,563.989 855.205,559.824 858.523,556.251C861.835,552.68 865.795,549.885 870.403,547.867C875.005,545.848 880.16,544.84 885.853,544.84C891.544,544.84 896.723,545.848 901.381,547.867C906.04,549.885 910.024,552.68 913.339,556.251C916.648,559.824 919.211,563.989 921.024,568.752C922.835,573.515 923.744,578.637 923.744,584.125C923.744,590.027 922.835,595.461 921.024,600.429ZM927.779,542.512C922.603,537.437 916.443,533.581 909.299,530.941C902.157,528.299 894.291,527.035 885.696,527.139C877.208,527.139 869.416,528.509 862.328,531.251C855.232,533.995 849.128,537.904 844.003,542.973C838.877,548.048 834.864,554.181 831.968,561.379C829.069,568.573 827.621,576.571 827.621,585.368C827.621,593.96 829.069,601.779 831.968,608.819C834.864,615.856 838.877,621.888 844.003,626.909C849.128,631.931 855.232,635.813 862.328,638.555C869.416,641.296 877.208,642.667 885.696,642.667C894.291,642.565 902.157,641.088 909.299,638.243C916.443,635.397 922.603,631.437 927.779,626.363C932.955,621.293 936.992,615.237 939.891,608.195C942.789,601.157 944.24,593.341 944.24,584.747C944.24,575.952 942.789,567.976 939.891,560.835C936.992,553.691 932.955,547.581 927.779,542.512ZM1295.71,529.931L1274.13,609.125L1273.81,609.125L1249.59,529.931L1230.33,529.931L1205.64,609.125L1205.33,609.125L1184.68,529.931L1163.25,529.931L1195.7,639.875L1213.72,639.875L1239.18,556.176L1239.5,556.176L1264.96,639.875L1283.6,639.875L1315.59,529.931L1295.71,529.931ZM968.619,639.875L988.184,639.875L988.184,594.219L1036.63,594.219L1036.63,576.517L988.184,576.517L988.184,547.632L1039.58,547.632L1039.58,529.931L968.619,529.931L968.619,639.875ZM1059.23,547.632L1092.92,547.632L1092.92,639.875L1112.49,639.875L1112.49,547.632L1146.19,547.632L1146.19,529.931L1059.23,529.931L1059.23,547.632ZM1628.6,230.957L1628.6,155.629L1511.73,155.629L1511.73,79.819L1436.4,79.819L1436.4,155.629L1382.7,155.629L1382.7,230.957L1436.4,230.957L1436.4,316.485C1436.4,357.576 1446.72,389.843 1467.09,412.384C1488.98,436.627 1522.15,448.915 1565.67,448.915C1583.5,448.915 1611.78,441.512 1628.6,432.669L1628.6,358.245C1604.33,373.392 1581.3,376.744 1565.67,376.744C1529.88,376.744 1511.73,353.283 1511.73,307.011L1511.73,230.957L1628.6,230.957ZM1552.97,639.875L1628.6,639.875L1628.6,622.173L1572.53,622.173L1572.53,592.357L1623,592.357L1623,574.651L1572.53,574.651L1572.53,547.632L1628.6,547.632L1628.6,529.931L1552.97,529.931L1552.97,639.875ZM1354.09,597.947L1371.32,553.224L1388.25,597.947L1354.09,597.947ZM1363.4,529.931L1315.58,639.875L1337.47,639.875L1347.41,614.717L1395.08,614.717L1405.33,639.875L1427.69,639.875L1380.33,529.931L1363.4,529.931ZM1488.16,576.128C1485.36,576.387 1482.57,576.517 1479.77,576.517L1464.55,576.517L1464.55,546.701L1481.48,546.701C1483.96,546.701 1486.53,546.856 1489.16,547.171C1491.81,547.48 1494.21,548.125 1496.38,549.109C1498.56,550.093 1500.32,551.568 1501.66,553.533C1503.01,555.501 1503.68,558.091 1503.68,561.299C1503.68,564.925 1502.96,567.741 1501.51,569.76C1500.06,571.781 1498.17,573.285 1495.84,574.267C1493.52,575.251 1490.95,575.869 1488.16,576.128ZM1517.58,581.488C1521.98,576.104 1524.18,569.427 1524.18,561.453C1524.18,555.243 1523.04,550.117 1520.77,546.077C1518.49,542.045 1515.43,538.837 1511.6,536.451C1507.77,534.072 1503.4,532.392 1498.48,531.405C1493.56,530.421 1488.46,529.931 1483.19,529.931L1444.98,529.931L1444.98,639.875L1464.55,639.875L1464.55,593.288L1478.84,593.288L1504.31,639.875L1527.91,639.875L1498.71,591.269C1506.89,590.131 1513.18,586.869 1517.58,581.488ZM796.627,582.419C792.797,580.037 788.6,578.176 784.048,576.829C779.491,575.485 775.299,574.085 771.469,572.632C767.64,571.184 764.429,569.477 761.843,567.512C759.253,565.544 757.96,562.696 757.96,558.968C757.96,556.485 758.477,554.336 759.515,552.523C760.547,550.717 761.92,549.24 763.629,548.099C765.336,546.96 767.251,546.133 769.373,545.616C771.493,545.096 773.696,544.84 775.973,544.84C779.803,544.84 783.451,545.539 786.92,546.936C790.389,548.331 793.157,550.531 795.229,553.533L809.515,538.472C805.168,534.435 800.275,531.536 794.84,529.773C789.405,528.016 783.789,527.139 777.992,527.139C772.92,527.139 767.952,527.811 763.085,529.157C758.216,530.501 753.896,532.547 750.117,535.291C746.339,538.032 743.285,541.477 740.957,545.616C738.629,549.757 737.461,554.677 737.461,560.368C737.461,566.891 738.755,572.093 741.344,575.973C743.931,579.853 747.141,582.96 750.973,585.291C754.803,587.621 758.992,589.461 763.552,590.803C768.104,592.152 772.299,593.573 776.128,595.072C779.957,596.576 783.168,598.411 785.755,600.587C788.344,602.76 789.64,605.867 789.64,609.904C789.64,612.387 789.069,614.587 787.931,616.507C786.789,618.419 785.291,619.997 783.427,621.24C781.565,622.483 779.491,623.413 777.216,624.035C774.939,624.656 772.659,624.965 770.384,624.965C766.035,624.965 761.92,623.96 758.037,621.939C754.155,619.92 751.024,617.099 748.643,613.477L733.891,627.76C738.445,633.147 743.883,636.973 750.197,639.253C756.509,641.528 763.085,642.667 769.92,642.667C775.299,642.667 780.424,641.944 785.291,640.493C790.155,639.048 794.424,636.872 798.101,633.971C801.776,631.075 804.701,627.427 806.875,623.024C809.051,618.627 810.136,613.477 810.136,607.576C810.136,601.053 808.84,595.827 806.253,591.891C803.667,587.96 800.456,584.8 796.627,582.419ZM151.381,376.101C119.704,376.101 94.488,362.365 76.429,335.275L75.328,333.621L75.328,259.957L76.64,258.208C96.243,232.072 122.784,217.677 151.381,217.677C193.317,217.677 227.435,253.213 227.435,296.891C227.435,340.565 193.317,376.101 151.381,376.101ZM157.699,145.509C133.197,145.509 106.832,153.203 85.363,166.621L75.328,172.896L75.328,144.085L0,144.085L0,639.893L75.328,639.893L75.328,420.885L85.363,427.157C106.835,440.576 133.2,448.272 157.699,448.272C197.653,448.272 234.493,432.565 261.435,404.048C288.088,375.843 302.763,337.784 302.763,296.891C302.763,255.997 288.088,217.939 261.435,189.731C234.493,161.213 197.653,145.509 157.699,145.509ZM1245.78,440.083L1321.11,440.083L1321.11,156.275L1245.78,156.275L1245.78,440.083ZM519.216,152.248C494.728,152.248 467.133,159.989 443.501,173.496L433.688,179.101L433.688,156.275L358.36,156.275L358.36,440.083L433.688,440.083L433.688,260.043L435.379,258.168C454.181,237.349 482.675,224.419 509.741,224.419C519.352,224.419 549.765,225.592 572.405,239.304L569.664,162.523C554.403,155.523 538.259,152.248 519.216,152.248ZM674.275,295.467C674.275,249.571 706.261,216.256 750.328,216.256C794.397,216.256 826.381,249.571 826.381,295.467C826.381,341.365 794.397,374.68 750.328,374.68C706.261,374.68 674.275,341.365 674.275,295.467ZM901.709,295.467C901.709,210.581 835.213,144.085 750.328,144.085C665.44,144.085 598.944,210.581 598.944,295.467C598.944,380.352 665.44,446.848 750.328,446.848C835.213,446.848 901.709,380.352 901.709,295.467ZM991.661,440.083L1066.99,440.083L1066.99,231.603L1180.71,231.603L1180.71,156.275L1066.99,156.275L1066.99,146.557C1066.99,98.187 1088.76,73.664 1131.67,73.664C1149.25,73.664 1164.31,78.269 1180.71,88.861L1180.71,11.915C1164.28,5.139 1149.53,1.493 1124.09,1.493C1042.4,1.493 991.661,55.867 991.661,143.4L991.661,156.275L941.123,156.275L941.123,231.603L991.661,231.603L991.661,440.083ZM1336.29,61.869L1283.44,9.019L1230.6,61.869L1283.44,114.717L1336.29,61.869Z" style="fill:#001a70;fill-rule:nonzero;"/></g></svg>