<svg xmlns="http://www.w3.org/2000/svg" viewBox="0 0 1829.44 399.99"><title>VisibaCare-logotype-2017</title><path d="M174,197.83a11.06,11.06,0,0,0-3.31-5.69C129.25,153.4,2.68,39.76,2.68,39.76A1.59,1.59,0,0,0,.44,42L136.3,186.19a20,20,0,0,1-.23,27.67L65.66,286.14a4,4,0,0,0-.85,4.37l2,4.66a4,4,0,0,0,6.56,1.26s73.84-65.49,97.66-88.19A11,11,0,0,0,174,197.83Z" style="fill:#80c1cb"/><path d="M225.47,201.47a11.06,11.06,0,0,0,3.31,5.69c41.41,38.74,168,152.38,168,152.38a1.59,1.59,0,0,0,2.24-2.25L262.68,213.15a20,20,0,0,1,.25-27.75l70.85-72.24a4,4,0,0,0,.85-4.37l-2-4.66a4,4,0,0,0-6.56-1.26s-73.84,65.49-97.66,88.19A11,11,0,0,0,225.47,201.47Z" style="fill:#80c1cb"/><path d="M200.79,173.49a11,11,0,0,0,8.08-3.4c39-41.26,153.26-167.43,153.26-167.43a1.56,1.56,0,0,0,0-2.21,1.62,1.62,0,0,0-2.24,0L215,136.85a20,20,0,0,1-27.69-.26L147.56,97.77a4,4,0,0,0-4.39-.84l-4.68,2a4,4,0,0,0-1.27,6.53s41.07,49.22,55.65,64.83A10.72,10.72,0,0,0,200.79,173.49Z" style="fill:#80c1cb"/><path d="M201.18,226.56a11,11,0,0,0-8.08,3.4C154.26,271.17,40.48,397.32,40.48,397.32a1.56,1.56,0,0,0,0,2.21,1.62,1.62,0,0,0,2.24,0L187,263.21a20,20,0,0,1,27.72.24l39.7,38.83a4,4,0,0,0,4.39.84l4.68-2a4,4,0,0,0,1.27-6.53s-41.07-49.22-55.65-64.83A10.72,10.72,0,0,0,201.18,226.56Z" style="fill:#80c1cb"/><path d="M537.63,84V316a4.05,4.05,0,0,1-4.11,4H511a4.05,4.05,0,0,1-4.11-4V84A4.05,4.05,0,0,1,511,80h22.49A4.05,4.05,0,0,1,537.63,84Z" style="fill:#008296"/><path d="M743.16,84V316a4.05,4.05,0,0,1-4.11,4H716.56a4.05,4.05,0,0,1-4.11-4V84a4.05,4.05,0,0,1,4.11-4h22.49A4.05,4.05,0,0,1,743.16,84Z" style="fill:#008296"/><path d="M767,316V84a4.05,4.05,0,0,1,4.11-4h25.94a182.5,182.5,0,0,1,34,2.86,103.35,103.35,0,0,1,28.25,9.71A48.31,48.31,0,0,1,879.88,113q7.34,13.54,7.35,33a55.72,55.72,0,0,1-7.19,26.9q-7.19,13.21-19.27,18.62v.64q21.22,3.82,35.27,21.49t14,39.32q0,33.75-24.82,50.46T824.52,320H771.14A4.05,4.05,0,0,1,767,316Zm30.71-205.29v71.58a4.05,4.05,0,0,0,4.11,4h3.73q25.48,0,39.19-8.28t13.72-31.83q0-23.23-13.56-31.36t-38.71-8.12h-4.38A4.05,4.05,0,0,0,797.74,110.75Zm0,103.46V289.3a4.05,4.05,0,0,0,4.11,4h19.41q58.13,0,58.14-42.34,0-12.09-5.72-20.53a34.53,34.53,0,0,0-15.51-12.57A91.28,91.28,0,0,0,838.24,212a126.77,126.77,0,0,0-21.56-1.75H801.85A4.05,4.05,0,0,0,797.74,214.22Z" style="fill:#008296"/><path d="M635.91,179l-17.32-6.41q-33.68-12.21-33.68-33,0-14.35,12.51-23.51a46.12,46.12,0,0,1,27.91-9.16q20.74,0,33.5,14.56a4,4,0,0,0,5.72.24L679,108a4,4,0,0,0,.27-5.55Q659.42,80,626,80q-28.88,0-50,16.34t-21.17,43.21q0,22,14,35.12t38.66,23.21L624,204.61q19.56,7.64,30.63,17.26,15.76,13.69,9.09,41.92a4.3,4.3,0,0,1-.33.91q-14.13,28.48-42.28,28.48-19.89,0-33.52-12.52A40.31,40.31,0,0,1,578,267.56a4.37,4.37,0,0,0-6.93-1.39L555.45,281a4,4,0,0,0-.63,5.06,73.72,73.72,0,0,0,15.47,17.35c13.44,11.06,31,16.86,49.29,16.68q32.07-.31,54-20.3,22.29-20.31,22.3-51.46,0-26.87-15.56-42.76T635.91,179Z" style="fill:#008296"/><path d="M389,317.61a4,4,0,0,0,7.36,0L493.92,85.34a4,4,0,0,0-3.8-5.56H466.31a4,4,0,0,0-3.7,2.48L396.36,244.06a4,4,0,0,1-7.39,0L342.75,131.71a4,4,0,0,0-6.52-1.31l-16.48,16.49a4,4,0,0,0-.86,4.38Z" style="fill:#008296"/><path d="M1007.63,82.44a3.91,3.91,0,0,0-7.25,0L904,315.85A3,3,0,0,0,906.7,320h25.71a3,3,0,0,0,2.74-1.87l65.22-162.24a3.91,3.91,0,0,1,7.28,0l64.75,162.23a3,3,0,0,0,2.74,1.87h25.41a3,3,0,0,0,2.73-4.15Z" style="fill:#008296"/><path d="M1809.07,293.83a4,4,0,0,0-2.83-1.18h-66.93a4.12,4.12,0,0,1-4-4.19V216a4,4,0,0,1,4-4h57.8a4,4,0,0,0,4-4V188.67a4,4,0,0,0-4-4h-57.8a4,4,0,0,1-4-4v-69a4.12,4.12,0,0,1,4-4.19h66.95a4,4,0,0,0,2.83-1.18l19.17-19.31a4,4,0,0,0-2.83-6.88h-115a4.12,4.12,0,0,0-4,4.19V315.84a4.12,4.12,0,0,0,4,4.19h115a4,4,0,0,0,2.83-6.88Z" style="fill:#008296"/><path d="M1690.65,313.38l-64.29-92.3a4.23,4.23,0,0,1,2.37-6.54,58.58,58.58,0,0,0,33.85-21.05q15.28-18.94,15.28-45a70.9,70.9,0,0,0-8.1-33.11,60.15,60.15,0,0,0-22.16-24.19,67.77,67.77,0,0,0-20-7.64,127.17,127.17,0,0,0-19.56-3q-8.1-.48-21.24-.48H1556a4.1,4.1,0,0,0-4,4.19V315.84a4.1,4.1,0,0,0,4,4.19h20.69a4.11,4.11,0,0,0,4-4.19V222.66a4.1,4.1,0,0,1,4-4.19h5.8a4,4,0,0,1,3.3,1.79l65.45,98a4,4,0,0,0,3.3,1.79h24.86A4.2,4.2,0,0,0,1690.65,313.38Zm-100.8-119.73h-5.15a4.1,4.1,0,0,1-4-4.19V110.93a4.1,4.1,0,0,1,4-4.19h3.62q62.64,0,62.65,43,0,13.69-5.19,22.92a31.33,31.33,0,0,1-14.67,13.53,76.15,76.15,0,0,1-19.1,5.89A136.67,136.67,0,0,1,1589.84,193.64Z" style="fill:#008296"/><path d="M1441,82.44a3.92,3.92,0,0,0-7.26,0l-96.48,233.4A3,3,0,0,0,1340,320h25.73a3,3,0,0,0,2.74-1.87l65.27-162.24a3.92,3.92,0,0,1,7.29,0l64.8,162.23a3,3,0,0,0,2.74,1.87H1534a3,3,0,0,0,2.73-4.15Z" style="fill:#008296"/><path d="M1312.23,288.17a4.05,4.05,0,0,0-4.32-.9,96.4,96.4,0,0,1-35.64,6.56q-39.68,0-66.8-27.54c-18.09-18.36-27.14-40.91-27.14-66.28s9-47.92,27.14-66.28,40.35-27.54,66.8-27.54a96.38,96.38,0,0,1,35.76,6.6,4.05,4.05,0,0,0,4.32-.9L1327,97.42a4,4,0,0,0-1.15-6.45,126.74,126.74,0,0,0-52.61-11q-51.41,0-88.07,34.39c-24.44,22.93-36.65,52.53-36.65,85.61s12.22,62.68,36.65,85.61S1238.95,320,1273.22,320a126.75,126.75,0,0,0,52.49-10.91,4,4,0,0,0,1.15-6.46Z" style="fill:#008296"/></svg>